<?xml version="1.0" encoding="utf-8"?>
<!-- Generator: Adobe Illustrator 24.2.3, SVG Export Plug-In . SVG Version: 6.00 Build 0)  -->
<svg version="1.1" id="RADIO_Image" xmlns="http://www.w3.org/2000/svg" xmlns:xlink="http://www.w3.org/1999/xlink" x="0px"
	 y="0px" viewBox="0 0 1002.6 1000" style="enable-background:new 0 0 1002.6 1000;" xml:space="preserve">
<style type="text/css">
	.st0{fill-rule:evenodd;clip-rule:evenodd;fill:#FFFFFF;}
</style>
<path class="st0" d="M527.2,0c2.3,0.4,4.6,1,6.9,1.2c10.2,1.2,20.5,2.3,30.8,3.5c5.2,0.6,10.2,2.4,14.5,5.5
	c7.7,5.5,11.3,13.2,11.7,22.3c0.1,4.6-0.1,9.3-0.6,13.9c-1,9.6-2.1,19.2-3.4,28.7c-0.6,3.6-1.5,7.1-2.8,10.5
	c-2.2,6.4-7.2,11.6-13.6,13.9c-0.8,0.3-1.6,0.7-2.7,1.2l12.3,76.2l-22.4-2.5c-3.9-23.9-7.7-47.6-11.6-71.4l-8.6-0.9
	c-2.6,23.1-5.2,45.9-7.8,69.2l-22.4-2.5c0.5-4.9,1-9.5,1.5-14.1c1.5-13.2,3-26.4,4.5-39.5c1.5-13.5,3-27,4.6-40.6
	c1.5-13.1,2.9-26.1,4.4-39.2c1.3-11.8,2.7-23.7,4.1-35.5L527.2,0z M540.1,80.8c4.9,0.5,9.3,1.2,13.8,1.2c4.3,0.3,8.2-2.4,9.4-6.5
	c0.9-2.5,1.6-5.2,2-7.9c1-7.3,1.8-14.7,2.6-22c0.4-3.4,0.4-6.8,0.2-10.2c-0.4-5.6-3.3-8.7-8.8-9.7c-3.4-0.6-7-0.9-10.5-1.3
	c-0.8,0-1.6,0-2.4,0.1C544.3,43.4,542.2,61.9,540.1,80.8L540.1,80.8z"/>
<path class="st0" d="M1002.6,508c-0.2,0.3-0.4,0.5-0.5,0.8c-2.3,13.7-10.2,21.8-23.8,24.4c-3.7,0.7-7.4,1.1-11.2,1.1
	c-9.6,0.2-19.3,0.3-28.9,0.4c-4.9,0.1-9.8-0.4-14.5-1.6c-12-3.2-19.8-12.6-20.5-25c-0.3-5.1-0.3-10.2-0.4-15.3
	c0-1.1-0.1-2.2-0.2-3.7l-69.5,1.1v-22.1c2.5-0.7,163.6-3.5,168.9-2.8c0,2.6-0.1,5.3,0,8c0.1,3.8,0.4,7.7,0.6,11.5L1002.6,508z
	 M924,488.8c0.3,5.3,0.3,10.1,0.9,14.8c0.4,3.5,2.9,6.4,6.4,7.2c2.6,0.8,5.3,1.2,8,1.3c8.4,0.1,16.8,0,25.2-0.3
	c3.2-0.1,6.3-0.6,9.4-1.3c3.6-0.7,6.3-3.6,7-7.2c1.1-5,0.3-10.1,0.2-15.4L924,488.8z"/>
<path class="st0" d="M289.2,245.6c-6.6,7.1-13.1,14-19.9,21.3l-100.6-54.1l-0.4,0.5l80.9,75.1l-15.4,16.5L109.9,189.1l19.3-20.7
	l102.9,54.7c0.1-0.2,0.3-0.4,0.4-0.6l-82.4-76.4c5.2-5.5,10.1-10.8,15-16.1C167.5,131.3,285.4,241.2,289.2,245.6z"/>
<path class="st0" d="M682.6,98.9L634.1,197l-20.2-10.1c25.3-50.6,50.4-101,75.8-151.6L715,47.9c-7.7,38.1-15.4,76.1-23.1,114
	l0.7,0.2c16.5-33.4,33-66.8,49.8-100.5l20.2,10.1c-25.3,50.6-50.5,101-75.8,151.6l-26.3-13.1c7.5-37,15.4-74,23-111L682.6,98.9z"/>
<path class="st0" d="M820.2,772.4c-2.8,1.1-5,2.2-7.3,3c-6,1.9-12.6,1.4-18.2-1.5c-2.2-1.1-4.4-2.4-6.4-3.9
	c-7-5.4-14.1-10.7-20.9-16.4c-3.5-2.9-6.6-6.2-9.3-9.8c-7-10.1-7.2-20.7-1.1-31.4c0.7-1.3,1.6-2.5,2.5-3.7
	c7.8-10,15.6-20.1,23.4-30.1c0.4-0.5,0.9-1,1.5-1.7L918,781c-0.5,0.8-0.8,1.2-1.1,1.7c-7.4,9.6-14.9,19.2-22.4,28.7
	c-3.4,4.5-7.9,8-13.1,10c-6.6,2.7-14,2.6-20.6-0.3c-4.2-1.8-8.1-4.1-11.8-6.7c-6.3-4.6-12.4-9.5-18.6-14.4c-5.2-4.1-9.4-9-10.5-15.8
	c-0.3-2.8-0.4-5.6-0.2-8.4C819.8,774.7,820,773.5,820.2,772.4z M787.4,707.8c-3.4,4.6-6.8,8.8-9.8,13.3c-2.2,3.2-2,7.5,0.5,10.6
	c1.6,2.2,3.5,4.2,5.6,5.9c6.1,4.9,12.2,9.8,18.5,14.4c2,1.5,4.2,2.7,6.5,3.5c3.8,1.5,8.1,0.9,11.2-1.8c4.2-3.5,7-8.2,10.5-12.5
	L787.4,707.8z M887.4,785.7l-40.1-31.2c-2.9,4-6,7.6-8.5,11.6c-2.2,3.3-1.9,7.5,0.6,10.5c1.7,2.3,3.7,4.3,5.8,6.1
	c5,4.1,10.1,8,15.3,11.9c2,1.5,4.1,2.8,6.4,3.8c4.8,2.1,8.8,1.3,12.3-2.6C881.9,792.8,884.4,789.4,887.4,785.7L887.4,785.7z"/>
<path class="st0" d="M85.8,777.9c-0.6-0.9-1.2-1.7-1.6-2.4c-5.8-10.1-11.6-20.3-17.4-30.4c-2.7-4.5-4.3-9.6-4.7-14.8
	c-0.4-7.1,2.1-14.1,6.9-19.4c3.7-4,8-7.4,12.8-10.1c23.5-13.5,47-26.9,70.6-40.4c5.7-3.3,11.4-6.6,17.2-9.7
	c4.4-2.6,9.3-4.3,14.3-5.3c10.3-1.8,18.8,1.6,25.7,9.2c1.6,1.8,3,3.7,4.2,5.8c6.1,10.5,12.1,21,18.1,31.6c0.3,0.5,0.5,1,0.9,1.8
	L85.8,777.9z M93,747.8l110-62.9c-2.5-4.2-4.7-8.3-7.4-12.1c-2.3-3.5-6.6-5-10.5-3.6c-2.7,0.8-5.4,1.8-7.8,3.2
	c-27.4,15.6-54.7,31.2-82,46.9c-2.3,1.4-4.5,3-6.5,4.9c-3.5,3.3-4.4,7.4-2.2,11.8C88.5,740,90.7,743.7,93,747.8z"/>
<path class="st0" d="M335.3,972.9c-8.2-3.5-15.9-6.8-23.6-10.2c-4.4-1.9-8.8-3.7-13.1-5.8c-8.3-4-14-10.4-16.2-19.5
	c-1.2-5.2-0.7-10.4,0.6-15.5c0.3-1.3,0.7-2.6,1.2-3.9c5.2-12.1,10.4-24.2,15.7-36.2c1.1-2.1,2.3-4.2,3.8-6.1
	c4.2-6.5,11.3-10.5,19.1-10.9c0.4,0,0.9-0.1,1.3-0.2c0.2-0.1,0.4-0.2,0.7-0.3c3.4-25.1,6.9-50.4,10.4-76.2l20.7,8.9
	c-3.2,23.8-6.4,47.6-9.7,71.7l7.8,3.4c9.3-21.3,18.3-42.5,27.7-64l20.7,8.9C380,869.1,357.7,920.8,335.3,972.9z M345.6,892l-9.1-3.9
	c-0.9-0.4-1.9-0.8-2.8-1.1c-5.1-1.7-9-0.5-12.3,3.8c-1.4,1.9-2.6,4-3.6,6.1c-3.5,7.9-6.9,15.8-10.2,23.7c-1,2.4-1.7,4.9-2.1,7.5
	c-0.7,3.5,0.6,7.2,3.5,9.4c2.1,1.7,11.2,5.7,14.3,6.2L345.6,892z"/>
<path class="st0" d="M88.4,461.3c17.2,0.3,34.5,0.5,51.7,1c4,0.1,7.9,0.5,11.8,1.4c11.2,2.5,18.3,9.7,21.7,20.4
	c2.8,8.6,2.7,17.9-0.3,26.4c-4.4,13.1-13.8,20-27.5,21.3c-2.6,0.2-5.2,0.3-7.8,0.2c-34.3-0.5-68.5-1.1-102.8-1.6
	c-3.5-0.1-7-0.5-10.4-1.2c-11.7-2.3-19-9.5-22.6-20.7c-2.8-8.7-2.9-18-0.4-26.8c3.3-11.8,11.9-19,24.8-20.6
	c3.6-0.4,7.2-0.6,10.9-0.6C54.4,460.7,71.4,461.1,88.4,461.3L88.4,461.3z M83.2,508.6c21.5,0.3,37.5,0.7,53.5,0.8
	c3.2,0,6.3-0.4,9.3-1.3c6-2,9.4-8.4,7.4-14.5c-1.1-3.4-3.6-6-7-7.3c-2.8-1-5.7-1.5-8.6-1.6c-33-0.7-66-1.2-99-1.7
	c-2.8,0-5.7,0.3-8.4,1.1c-6.2,1.6-9.9,7.9-8.3,14.2c1,3.9,4,7,7.9,8.2c2.8,0.8,5.7,1.3,8.7,1.4C55.3,508.2,72,508.4,83.2,508.6z"/>
<path class="st0" d="M987.5,628.2l-7.2,21.2c-1.5-0.4-2.7-0.8-4-1.2c-40.4-13.7-80.7-27.3-121.1-41c-2.8-1-5.6-1.7-8.5-2.2
	c-8.4-1.1-14.8,5.1-13.8,13.1c0.4,3.6,2.4,6.8,5.6,8.5c2.7,1.6,5.6,2.9,8.6,3.9c36.3,12.4,72.5,24.7,108.8,36.9l13.5,4.6
	c0.8,0.3,1.7,0.7,2.9,1.1l-7.2,21.1c-1.5-0.4-2.7-0.8-3.8-1.2c-41.4-14-82.9-28.1-124.3-42.2c-3.9-1.3-7.6-2.9-11.2-4.9
	c-11.4-6.4-16-16.6-15.1-29.4c0.5-6.6,2.5-13,5.9-18.7c7.8-13.6,20.7-19.3,36.1-15.2c8,2.1,15.8,5,23.6,7.7
	c35.8,12.1,71.5,24.2,107.2,36.3C984.7,627.1,985.9,627.6,987.5,628.2z"/>
<path class="st0" d="M253.7,721.1l16.8,15l-21.7,31.1l18.7,16.6l28.3-25.1l16.8,15L182.9,885.1L158.2,863L253.7,721.1z M236.5,785
	l-45.9,65.6c-0.2,0.3-0.3,0.6-0.4,0.9c0,0.1,0,0.2,0.1,0.3s0.2,0.1,0.4,0.3l60.7-53.8L236.5,785z"/>
<path class="st0" d="M539.4,886.2l-22.3,2.8c-0.5-3.5-1-6.8-1.4-10c-0.7-4.9-1.5-9.9-1.8-14.8c-0.3-4.3-0.3-8.6,0.2-12.9
	c1.2-9.3,6.4-16.2,14.4-20.7c9.6-5.5,21-6.9,31.6-4c11.3,2.9,18.5,10.4,21.4,21.6c1.3,5.3,2.2,10.7,2.8,16.1c2,15.3,4,30.6,6,45.9
	c1.9,15,3.8,29.9,5.7,44.9c0.7,5.6,1.5,11.2,0.8,16.9c-1.1,9-5.2,16.2-12.8,21c-10.6,7-23.7,8.9-35.9,5.3c-9-2.5-15.3-8.4-18.1-17.4
	c-1.4-4.9-2.4-9.9-3-15c-1.2-7.6-2-15.2-3.1-23.3l22.3-2.9c0.5,3.5,1,6.7,1.4,10c0.7,5.2,1.2,10.4,2.1,15.5c0.4,2.6,1.3,5,2.6,7.3
	c2.5,4.5,6.6,6.4,11.8,5.7c4.7-0.5,8.5-4,9.4-8.6c0.6-3,0.8-6.1,0.5-9.1c-3.2-25.4-6.5-50.8-9.8-76.3c-1-7.5-1.8-15.1-2.9-22.6
	c-0.4-2.8-1.2-5.5-2.4-8.1c-2.1-4.6-7-7.3-12-6.5c-5.4,0.8-9.4,4.6-9.9,10.1c-0.3,3.6-0.2,7.2,0.3,10.8
	C537.7,873.8,538.6,879.8,539.4,886.2z"/>
<path class="st0" d="M426.5,157.2l37.3-7.5c1.4,7.1,2.8,13.8,4.3,21l-59.4,12.1L374.9,16.6l59.4-12c1.4,7.1,2.8,13.8,4.3,21
	l-37.3,7.6c3.4,17,6.8,33.7,10.3,50.7l35.8-7.2l4.3,21l-35.8,7.3C419.4,122.5,422.9,139.6,426.5,157.2z"/>
<path class="st0" d="M841.5,132l42.2,43.5l-15.4,14.9l-26.5-27.3l-37.2,36l25.4,26.2l-15.3,14.9c-8.6-8.6-16.8-17.3-25.5-26.2
	c-12.8,12.4-25.4,24.6-38.3,37.1l26.5,27.4l-15.4,15l-42.2-43.5L841.5,132z"/>
<path class="st0" d="M790.8,338.4l131.3-68.3c-3.2-6.2-6.4-12.3-9.6-18.7l19-9.9l29.8,57.3l-19,9.9l-9.8-18.6l-131.3,68.3
	L790.8,338.4z"/>
<path class="st0" d="M266.8,84.5l-18.5,9.9c-3.4-6.3-6.7-12.4-10.2-18.9L295,44.9c3.4,6.3,6.7,12.4,10.2,18.9l-18.5,10l70,130.4
	l-19.9,10.7L266.8,84.5z"/>
<path class="st0" d="M704.9,788.7l-22,15.6l-12.4-17.5l40.4-28.7l98,138.3l-18.4,13C762,869.2,733.6,829.2,704.9,788.7z"/>
<path class="st0" d="M51.5,285.6c3.5-6.9,6.8-13.4,10.2-20.2L213,341.9l-10.2,20.2L51.5,285.6z"/>
<path class="st0" d="M21.9,637.5l-5.7-21.8L180.3,573c1.9,7.3,3.8,14.4,5.7,21.8L21.9,637.5z"/>
<path class="st0" d="M618.3,810.5l20.1-8.3c1.8,2.3,61.2,145.7,64.9,156.6l-20.1,8.3C681.4,964.8,621.8,820.8,618.3,810.5z"/>
</svg>
